Coordinates
version=1
nRows=12
nColumns=42
inDegrees=yes

Units are S.I. units (second, meters, Newtons, ...)
If the header above contains a line with 'inDegrees', this indicates whether rotational values are in degrees (yes) or radians (no).

endheader
time	pelvis_tilt	pelvis_list	pelvis_rotation	pelvis_tx	pelvis_ty	pelvis_tz	hip_flexion_r	hip_adduction_r	hip_rotation_r	knee_angle_r	knee_angle_r_beta	ankle_angle_r	subtalar_angle_r	mtp_angle_r	hip_flexion_l	hip_adduction_l	hip_rotation_l	knee_angle_l	knee_angle_l_beta	ankle_angle_l	subtalar_angle_l	mtp_angle_l	lumbar_extension	lumbar_bending	lumbar_rotation	sh_tx_r	sh_ty_r	sh_tz_r	sh_plane_elev_r	sh_elev_r	sh_axial_rot_r	elbow_flex_r	pro_sup_r	sh_tx_l	sh_ty_l	sh_tz_l	sh_plane_elev_l	sh_elev_l	sh_axial_rot_l	elbow_flex_l	pro_sup_l
      1.75000000	     -6.05954435	      0.17423099	      0.50551063	      0.25661970	      0.93377846	     -0.06206375	      3.76255349	     -6.74906564	    -18.56287927	      0.37876147	      0.00661063	     -4.01057248	    -15.82764708	     -7.49999987	      5.17104022	     -5.17559807	     -7.67137897	      0.31130784	      0.00543335	      6.76996573	      2.30193059	     -7.49999987	      1.91274242	     -2.26738764	     -7.31206110	     -0.00426810	     -0.01664603	     -0.00542339	      1.31881844	      5.77573936	      2.92399086	     24.05595437	     92.10627489	     -0.01616436	      0.01687152	     -0.00526687	     52.65150491	     62.59106815	    -45.01672346	     30.06281906	      5.69677433
      1.76666670	     -6.02742426	      0.13618520	      0.51825617	      0.25665307	      0.93394924	     -0.06218007	      3.70723256	     -6.73117556	    -18.60601517	      0.38060119	      0.00664274	     -3.76851364	    -15.52251277	     -7.49999987	      5.14016205	     -5.20811617	     -7.46894773	      0.30716701	      0.00536108	      6.84625748	      2.27146330	     -7.49999987	      1.94478280	     -2.26279428	     -7.24121676	     -0.00463320	     -0.01651070	     -0.00534702	      1.53488041	      5.81263368	      3.27652905	     23.70608862	     91.53521569	     -0.01496258	      0.01800753	     -0.00522501	     52.41552372	     62.12906204	    -44.82558238	     31.03725252	      6.66173598
      1.78333330	     -6.10119776	      0.11462379	      0.47801600	      0.25675260	      0.93386681	     -0.06221174	      3.78015661	     -6.72689688	    -18.49884176	      0.38876426	      0.00678522	     -3.66934134	    -15.40862560	     -7.49999987	      5.20877432	     -5.22164701	     -7.41358950	      0.30645956	      0.00534873	      7.02732623	      2.44821357	     -7.49999987	      2.05321104	     -2.22494277	     -7.08661799	     -0.00541207	     -0.01653946	     -0.00527215	      1.51994847	      5.95286584	      3.24885170	     23.75135363	     95.23084670	     -0.01493193	      0.01714645	     -0.00520123	     52.97318337	     62.53152952	    -42.95408808	     30.08770843	      4.83706688
      1.80000000	     -6.11685256	      0.10928789	      0.40304939	      0.25673067	      0.93713370	     -0.06245864	      3.81898333	     -6.72819813	    -18.40535465	      0.39077754	      0.00682035	     -3.63974181	    -15.43073703	     -7.49999987	      5.22101764	     -5.23087504	     -7.46343109	      0.30230760	      0.00527626	      7.06455752	      2.60327028	     -7.49999987	      2.10569909	     -2.16152884	     -7.40122488	     -0.00455261	     -0.01659728	     -0.00524214	      1.10263173	      5.86219564	      2.90013416	     23.67426484	     99.30715125	     -0.01470270	      0.01714556	     -0.00506106	     52.66795100	     62.36961088	    -42.40353638	     29.84974718	      4.82175387
      1.81666670	     -6.05945803	      0.09337110	      0.37073081	      0.25668901	      0.93694741	     -0.06244531	      3.77144562	     -6.71566746	    -18.31167496	      0.38718059	      0.00675758	     -3.73631314	    -15.59314839	     -7.49999987	      5.15890614	     -5.24163759	     -7.43089750	      0.29675512	      0.00517935	      7.11156272	      2.65033459	     -7.49999987	      2.04092778	     -2.14410742	     -7.71538569	     -0.00337764	     -0.01667507	     -0.00521753	      1.25349369	      5.89022912	      2.85924030	     23.90593651	     98.38839900	     -0.01410464	      0.01719282	     -0.00493087	     52.37284405	     62.32389008	    -42.38103116	     29.76664307	      4.75937714
      1.83333330	     -6.07533410	      0.09058370	      0.36445663	      0.25665125	      0.93674187	     -0.06252450	      3.79374240	     -6.70832184	    -18.36739034	      0.38510003	      0.00672126	     -3.71055196	    -15.46591773	     -7.49999987	      5.17232067	     -5.24817856	     -7.48148604	      0.29780895	      0.00519775	      7.11923454	      2.68396795	     -7.49999987	      2.12186767	     -2.13119962	     -7.58350476	     -0.00340878	     -0.01681882	     -0.00523100	      2.11274118	      6.08537897	      2.28911444	     23.76101062	     98.53796416	     -0.01358226	      0.01645093	     -0.00480518	     52.77990799	     62.70150595	    -39.60654538	     27.74546106	      4.15092967
      1.85000000	     -6.06068868	      0.09216171	      0.39810887	      0.25670166	      0.93661682	     -0.06247018	      3.73295518	     -6.70658492	    -18.47909406	      0.39081279	      0.00682097	     -3.64626974	    -15.28790058	     -7.49999987	      5.16760104	     -5.23453205	     -7.32148397	      0.29813253	      0.00520339	      7.06517112	      2.51187013	     -7.49999987	      2.07379527	     -2.08086841	     -7.92303360	     -0.00185034	     -0.01693548	     -0.00518090	      2.34677189	      6.16639769	      2.22258057	     23.84957037	     98.62040140	     -0.01425994	      0.01612800	     -0.00462687	     52.79646270	     62.48734073	    -38.57913048	     26.91096019	      4.08974320
      1.86666670	     -6.04278363	      0.10602836	      0.42598569	      0.25665316	      0.93649830	     -0.06247143	      3.69532135	     -6.69898743	    -18.51330108	      0.40014840	      0.00698391	     -3.61352946	    -15.30712563	     -7.49999987	      5.15663805	     -5.22758685	     -7.38106238	      0.30463872	      0.00531695	      7.08162099	      2.51274788	     -7.49999987	      2.01071364	     -2.07717016	     -7.59202259	     -0.00213690	     -0.01692909	     -0.00516569	      1.80617559	      6.21461943	      2.15147390	     23.87032535	     99.68848022	     -0.01318027	      0.01633487	     -0.00457576	     53.05849788	     62.49899055	    -37.53048204	     25.97352481	      3.74682812
      1.88333330	     -5.99381435	      0.14016485	      0.49135232	      0.25673283	      0.93644657	     -0.06239913	      3.58512627	     -6.71684345	    -18.57908566	      0.39834207	      0.00695238	     -3.46429224	    -15.09906073	     -7.49999987	      5.10371290	     -5.20289145	     -7.41429242	      0.30651032	      0.00534961	      7.00046817	      2.56775067	     -7.49999987	      1.86395574	     -2.10332397	     -7.58846742	     -0.00237387	     -0.01696128	     -0.00511187	      1.96976492	      6.31598257	      1.67414717	     23.98827131	    101.57631896	     -0.01323800	      0.01601751	     -0.00443389	     53.41177713	     62.64988112	    -35.12435003	     24.50872841	      3.66945400
      1.90000000	     -5.97697551	      0.14107664	      0.56036615	      0.25666640	      0.93634149	     -0.06244839	      3.52481287	     -6.71252600	    -18.59348056	      0.40107265	      0.00700004	     -3.52598309	    -15.26682000	     -7.49999987	      5.10133567	     -5.21304610	     -7.51935815	      0.31090944	      0.00542639	      7.09091828	      2.78688867	     -7.49999987	      1.76759757	     -2.05270348	     -8.06779272	     -0.00108255	     -0.01697973	     -0.00516139	      2.08369943	      6.34704367	      1.99196416	     24.38980706	     99.70226444	     -0.01438770	      0.01706058	     -0.00439148	     52.64300596	     62.40494531	    -36.05352947	     24.35325197	      3.82144354
      1.91666670	     -5.96621080	      0.15377345	      0.58819929	      0.25250090	      0.93619185	     -0.06660610	      3.55578900	     -6.80218556	    -18.65295623	      0.41901069	      0.00731312	     -3.30458767	    -15.02411067	     -7.49999987	      5.16122759	     -5.13301459	     -7.44323867	      0.31405552	      0.00548130	      7.02654521	      2.47268265	     -7.49999987	      1.67244354	     -1.99194486	     -7.36867009	     -0.00211936	     -0.01706560	     -0.00504952	      1.64458833	      6.62099048	      1.27845409	     24.39161095	    103.40254209	     -0.01280668	      0.01587528	     -0.00429474	     54.02969384	     63.10728630	    -33.02788124	     21.98491205	      3.42661539
      1.93333330	     -5.90768806	      0.15934685	      0.65065581	      0.25673532	      0.93630223	     -0.06246659	      3.46951537	     -6.80257320	    -18.61634238	      0.42166435	      0.00735943	     -3.24159150	    -14.97629817	     -7.49999987	      5.10782298	     -5.13284859	     -7.41255028	      0.31355018	      0.00547248	      6.95156594	      2.42973236	     -7.49999987	      1.58307563	     -1.98140525	     -7.21686069	     -0.00298053	     -0.01711333	     -0.00505558	      1.52750377	      6.62417753	      0.96021473	     24.30602635	    103.68636283	     -0.01267396	      0.01643159	     -0.00424842	     53.96362506	     63.24024680	    -32.43051827	     21.23940060	      3.34857072
